# xmcd
#
# Track frame offsets: 
#        150
#        18959
#        38651
#        59194
#        80045
#        100656
#        121858
#        142879
#        162779
#        182108
#        197364
#        219039
#
# Disc length: 3231 seconds
#
# Revision: 0
# Processed by: cddbd v1.5.2PL0 Copyright (c) Steve Scherf et al.
# Submitted via: ExactAudioCopy v0.99pb4
#
DISCID=950c9d0c
DTITLE=Lexi - Somewhere Different
DYEAR=2002
DGENRE=Gospel
TTITLE0=He's Done So Much
TTITLE1=Don't Give Up
TTITLE2=Not The Same
TTITLE3=Betcha' Miss His Love
TTITLE4=Don't You ( Tell Me What God Won't Do )
TTITLE5=Not Until
TTITLE6=Testify
TTITLE7=I'll Be There
TTITLE8=Without You
TTITLE9=Dream ( His Love Woke Me Up )
TTITLE10=Ms. Incognito
TTITLE11=I Lift My Hands
EXTD=
EXTT0=
EXTT1=
EXTT2=
EXTT3=
EXTT4=
EXTT5=
EXTT6=
EXTT7=
EXTT8=
EXTT9=
EXTT10=
EXTT11=
PLAYORDER=
